<?xml version="1.0" standalone="no"?>
<!DOCTYPE svg PUBLIC "-//W3C//DTD SVG 20010904//EN"
 "http://www.w3.org/TR/2001/REC-SVG-20010904/DTD/svg10.dtd">
<svg version="1.0" xmlns="http://www.w3.org/2000/svg"
 width="1000.000000pt" height="1000.000000pt" viewBox="0 0 1000.000000 1000.000000"
 preserveAspectRatio="xMidYMid meet">
<metadata>
Created by potrace 1.14, written by Peter Selinger 2001-2017
</metadata>
<g transform="translate(0.000000,1000.000000) scale(0.100000,-0.100000)"
fill="#000000" stroke="none">
<path d="M1531 9984 c-711 -97 -1300 -621 -1476 -1313 -58 -230 -55 -31 -55
-3671 0 -3640 -3 -3441 55 -3671 157 -619 655 -1117 1274 -1274 230 -58 31
-55 3671 -55 3640 0 3441 -3 3671 55 619 157 1117 655 1274 1274 58 230 55 31
55 3671 0 3640 3 3441 -55 3671 -157 619 -655 1117 -1274 1274 -230 58 -28 55
-3684 54 -2820 -1 -3368 -3 -3456 -15z m3784 -359 c1000 -117 1905 -762 2525
-1801 106 -177 267 -506 348 -709 149 -378 241 -709 313 -1124 19 -115 39
-194 55 -227 17 -37 77 -104 217 -245 106 -107 231 -243 278 -304 245 -313
399 -604 494 -928 69 -235 95 -415 95 -662 0 -177 -10 -289 -40 -440 -132
-673 -556 -1295 -1225 -1795 -666 -498 -1511 -831 -2460 -969 -326 -48 -459
-56 -915 -56 -456 0 -589 8 -915 56 -949 138 -1794 471 -2460 969 -732 547
-1172 1243 -1255 1985 -13 116 -13 384 0 500 44 391 187 774 423 1125 123 185
237 320 434 519 140 141 200 208 217 245 16 33 36 112 55 227 186 1074 645
2011 1316 2685 531 533 1185 867 1858 948 156 19 482 19 642 1z"/>
<path d="M3701 8784 c-52 -26 -102 -80 -123 -134 -5 -14 -10 -50 -11 -82 -2
-181 185 -301 348 -224 126 59 178 199 121 321 -25 55 -81 110 -132 131 -55
23 -142 18 -203 -12z"/>
<path d="M6094 8796 c-50 -22 -106 -78 -130 -131 -75 -161 46 -345 226 -345
183 1 301 200 214 360 -47 86 -122 130 -221 130 -32 -1 -72 -7 -89 -14z"/>
<path d="M4833 8309 c-202 -20 -437 -102 -563 -197 -59 -45 -111 -106 -140
-163 l-19 -36 -173 -12 c-690 -48 -1219 -151 -1318 -256 -61 -65 -2 -128 170
-183 406 -131 1207 -205 2210 -205 1003 0 1804 74 2210 205 172 55 231 118
170 183 -99 105 -628 208 -1318 256 l-173 12 -19 36 c-96 187 -377 328 -721
360 -128 12 -183 12 -316 0z"/>
</g>
</svg>
