<?xml version="1.0" standalone="no"?>
<!DOCTYPE svg PUBLIC "-//W3C//DTD SVG 20010904//EN"
 "http://www.w3.org/TR/2001/REC-SVG-20010904/DTD/svg10.dtd">
<svg version="1.0" xmlns="http://www.w3.org/2000/svg"
 width="1000.000000pt" height="1000.000000pt" viewBox="0 0 1000.000000 1000.000000"
 preserveAspectRatio="xMidYMid meet">
<metadata>
Created by potrace 1.14, written by Peter Selinger 2001-2017
</metadata>
<g transform="translate(0.000000,1000.000000) scale(0.100000,-0.100000)"
fill="#000000" stroke="none">
<path d="M4690 9985 c-732 -77 -1409 -393 -1999 -935 -793 -729 -1343 -1804
-1548 -3024 l-18 -109 -75 -70 c-755 -703 -1132 -1612 -1035 -2492 80 -730
421 -1371 1040 -1956 522 -493 1280 -907 2085 -1139 627 -181 1169 -255 1860
-255 380 0 514 8 830 46 1658 200 3068 998 3754 2127 426 699 528 1509 286
2267 -161 505 -480 990 -925 1407 l-70 66 -18 108 c-131 777 -399 1494 -790
2109 -755 1188 -1883 1871 -3082 1864 -93 -1 -226 -7 -295 -14z m490 -350
c693 -29 1429 -381 2005 -959 677 -679 1137 -1623 1320 -2707 18 -102 35 -170
52 -205 19 -38 77 -104 213 -241 102 -103 226 -237 275 -298 331 -414 532
-876 585 -1345 12 -106 15 -373 5 -471 -84 -823 -598 -1587 -1450 -2156 -1097
-733 -2633 -1044 -4109 -832 -1589 228 -2926 1052 -3458 2130 -141 287 -223
562 -253 858 -10 98 -7 365 5 471 53 469 254 931 585 1345 49 61 173 195 275
298 136 137 194 203 213 241 17 35 34 103 52 205 183 1085 643 2028 1320 2707
378 379 819 660 1287 820 131 45 358 99 498 120 112 16 365 32 425 27 17 -1
86 -5 155 -8z"/>
<path d="M3702 8784 c-86 -43 -132 -121 -132 -221 1 -179 183 -295 346 -219
124 58 178 212 115 333 -61 119 -209 167 -329 107z"/>
<path d="M6090 8790 c-118 -55 -175 -179 -136 -297 58 -176 276 -231 405 -102
111 112 90 301 -43 383 -65 41 -159 47 -226 16z"/>
<path d="M4800 8304 c-284 -51 -445 -117 -574 -234 -29 -27 -66 -74 -82 -104
l-28 -54 -96 -7 c-861 -58 -1420 -180 -1420 -310 0 -113 427 -223 1105 -284
450 -41 592 -46 1295 -46 703 0 845 5 1295 46 678 61 1105 171 1105 284 0 130
-559 252 -1421 310 l-96 7 -21 44 c-68 139 -264 260 -522 321 -91 22 -133 26
-310 28 -113 2 -216 1 -230 -1z"/>
</g>
</svg>
